# xmcd
#
# Track frame offsets: 
#        150
#        18653
#        47818
#        81095
#        103011
#        122061
#        140746
#        158857
#        181231
#        187722
#        222953
#        247396
#
# Disc length: 3438 seconds
#
# Revision: 1
# Processed by: cddbd v1.5.2PL0 Copyright (c) Steve Scherf et al.
# Submitted via: ExactAudioCopy v1.0b4
#
DISCID=aa0d6c0c
DTITLE=Eric Burdon and The New Animals - The Official Live Bootleg 200
DTITLE=0
DYEAR=2000
DGENRE=Blues Rock
TTITLE0=Inside Looking Out
TTITLE1=Dont Let Me Be Misunderstood
TTITLE2=Monterey
TTITLE3=Lawdy Miss Clawdy
TTITLE4=When I Was Young
TTITLE5=Hey Gyp
TTITLE6=See See Rider
TTITLE7=San Francisco Nights
TTITLE8=Star Spangled Banner
TTITLE9=Sky Pilot
TTITLE10=House Of The Rising Sun
TTITLE11=You Got Me Floatin'
EXTD=
EXTT0=
EXTT1=
EXTT2=
EXTT3=
EXTT4=
EXTT5=
EXTT6=
EXTT7=
EXTT8=
EXTT9=
EXTT10=
EXTT11=
PLAYORDER=
